<svg width="451" height="71" viewBox="0 0 451 71" fill="none" xmlns="http://www.w3.org/2000/svg">
<path d="M26.088 70.152C20.2 70.152 15.208 69.16 11.112 67.176C7.016 65.128 3.528 62.504 0.648 59.304L10.248 49.608C14.792 54.728 20.392 57.288 27.048 57.288C30.632 57.288 33.288 56.552 35.016 55.08C36.744 53.608 37.608 51.656 37.608 49.224C37.608 47.368 37.096 45.832 36.072 44.616C35.048 43.336 32.968 42.472 29.832 42.024L23.208 41.16C16.104 40.264 10.888 38.12 7.56 34.728C4.296 31.336 2.664 26.824 2.664 21.192C2.664 18.184 3.24 15.432 4.392 12.936C5.544 10.44 7.176 8.296 9.288 6.504C11.464 4.712 14.088 3.336 17.16 2.376C20.296 1.352 23.848 0.839996 27.816 0.839996C32.872 0.839996 37.32 1.64 41.16 3.23999C45 4.84 48.296 7.176 51.048 10.248L41.352 20.04C39.752 18.184 37.8 16.68 35.496 15.528C33.256 14.312 30.408 13.704 26.952 13.704C23.688 13.704 21.256 14.28 19.656 15.432C18.056 16.584 17.256 18.184 17.256 20.232C17.256 22.536 17.864 24.2 19.08 25.224C20.36 26.248 22.408 26.984 25.224 27.432L31.848 28.488C38.76 29.576 43.88 31.72 47.208 34.92C50.536 38.056 52.2 42.536 52.2 48.36C52.2 51.56 51.624 54.504 50.472 57.192C49.32 59.88 47.624 62.184 45.384 64.104C43.208 66.024 40.488 67.528 37.224 68.616C33.96 69.64 30.248 70.152 26.088 70.152ZM61.7063 69V57.384H70.3463V13.608H61.7063V1.992H93.5783V13.608H84.9383V57.384H93.5783V69H61.7063ZM103.144 69V57.384H111.784V13.608H103.144V1.992H135.016V13.608H126.376V57.384H135.016V69H103.144ZM189.701 58.344H189.221C188.709 61.736 186.981 64.552 184.037 66.792C181.093 69.032 177.093 70.152 172.037 70.152C168.197 70.152 164.613 69.416 161.285 67.944C157.957 66.472 155.045 64.296 152.549 61.416C150.053 58.536 148.101 54.952 146.693 50.664C145.285 46.376 144.581 41.416 144.581 35.784C144.581 30.152 145.317 25.16 146.789 20.808C148.261 16.456 150.309 12.808 152.933 9.86399C155.621 6.91999 158.821 4.67999 162.533 3.144C166.245 1.608 170.373 0.839996 174.917 0.839996C180.933 0.839996 186.117 2.152 190.469 4.776C194.821 7.336 198.245 11.208 200.741 16.392L188.837 23.208C187.813 20.584 186.213 18.376 184.037 16.584C181.861 14.728 178.821 13.8 174.917 13.8C170.373 13.8 166.757 15.112 164.069 17.736C161.381 20.36 160.037 24.488 160.037 30.12V40.872C160.037 46.44 161.381 50.568 164.069 53.256C166.757 55.88 170.373 57.192 174.917 57.192C176.709 57.192 178.405 57 180.005 56.616C181.605 56.168 183.013 55.528 184.229 54.696C185.445 53.8 186.373 52.744 187.013 51.528C187.717 50.312 188.069 48.872 188.069 47.208V43.848H175.589V31.656H201.989V69H189.701V58.344ZM236.621 37.32L230.189 23.88H229.901V69H216.173V1.992H232.109L250.445 33.672L256.877 47.112H257.165V1.992H270.893V69H254.957L236.621 37.32ZM326.922 69L322.122 53.064H299.754L294.954 69H280.17L302.25 1.992H320.298L342.09 69H326.922ZM311.082 15.24H310.602L303.21 40.68H318.57L311.082 15.24ZM351.361 69V1.992H365.953V56.04H391.489V69H351.361ZM423.963 70.152C418.075 70.152 413.083 69.16 408.987 67.176C404.891 65.128 401.403 62.504 398.523 59.304L408.123 49.608C412.667 54.728 418.267 57.288 424.923 57.288C428.507 57.288 431.163 56.552 432.891 55.08C434.619 53.608 435.483 51.656 435.483 49.224C435.483 47.368 434.971 45.832 433.947 44.616C432.923 43.336 430.843 42.472 427.707 42.024L421.083 41.16C413.979 40.264 408.763 38.12 405.435 34.728C402.171 31.336 400.539 26.824 400.539 21.192C400.539 18.184 401.115 15.432 402.267 12.936C403.419 10.44 405.051 8.296 407.163 6.504C409.339 4.712 411.963 3.336 415.035 2.376C418.171 1.352 421.723 0.839996 425.691 0.839996C430.747 0.839996 435.195 1.64 439.035 3.23999C442.875 4.84 446.171 7.176 448.923 10.248L439.227 20.04C437.627 18.184 435.675 16.68 433.371 15.528C431.131 14.312 428.283 13.704 424.827 13.704C421.563 13.704 419.131 14.28 417.531 15.432C415.931 16.584 415.131 18.184 415.131 20.232C415.131 22.536 415.739 24.2 416.955 25.224C418.235 26.248 420.283 26.984 423.099 27.432L429.723 28.488C436.635 29.576 441.755 31.72 445.083 34.92C448.411 38.056 450.075 42.536 450.075 48.36C450.075 51.56 449.499 54.504 448.347 57.192C447.195 59.88 445.499 62.184 443.259 64.104C441.083 66.024 438.363 67.528 435.099 68.616C431.835 69.64 428.123 70.152 423.963 70.152Z" fill="white"/>
</svg>
